<?xml version="1.0" encoding="utf-8"?>
<!-- Generator: Adobe Illustrator 22.0.0, SVG Export Plug-In . SVG Version: 6.00 Build 0)  -->
<svg version="1.1" xmlns="http://www.w3.org/2000/svg" xmlns:xlink="http://www.w3.org/1999/xlink" x="0px" y="0px"
	 viewBox="0 0 850.4 850.4" style="enable-background:new 0 0 850.4 850.4;" xml:space="preserve">
<style type="text/css">
	.st0{clip-path:url(#SVGID_2_);}
	.st1{fill:none;stroke:#91C88D;stroke-width:15.7065;stroke-miterlimit:10;}
	.st2{fill:none;stroke:#91C88D;stroke-width:14.8598;stroke-miterlimit:10;}
	.st3{fill:none;stroke:#91C88D;stroke-width:14.0588;stroke-miterlimit:10;}
	.st4{fill:none;stroke:#91C88D;stroke-width:13.3009;stroke-miterlimit:10;}
	.st5{fill:none;stroke:#91C88D;stroke-width:12.5839;stroke-miterlimit:10;}
	.st6{fill:none;stroke:#91C88D;stroke-width:11.9056;stroke-miterlimit:10;}
	.st7{fill:none;stroke:#91C88D;stroke-width:11.2638;stroke-miterlimit:10;}
	.st8{fill:none;stroke:#91C88D;stroke-width:10.6566;stroke-miterlimit:10;}
	.st9{fill:none;stroke:#91C88D;stroke-width:10.0822;stroke-miterlimit:10;}
	.st10{fill:none;stroke:#91C88D;stroke-width:9.5387;stroke-miterlimit:10;}
	.st11{fill:none;stroke:#91C88D;stroke-width:9.0245;stroke-miterlimit:10;}
	.st12{fill:none;stroke:#91C88D;stroke-width:8.538;stroke-miterlimit:10;}
	.st13{fill:none;stroke:#91C88D;stroke-width:8.0778;stroke-miterlimit:10;}
	.st14{fill:none;stroke:#91C88D;stroke-width:7.6424;stroke-miterlimit:10;}
	.st15{fill:none;stroke:#91C88D;stroke-width:7.2304;stroke-miterlimit:10;}
	.st16{fill:none;stroke:#91C88D;stroke-width:6.8406;stroke-miterlimit:10;}
	.st17{fill:none;stroke:#91C88D;stroke-width:6.4719;stroke-miterlimit:10;}
	.st18{fill:none;stroke:#91C88D;stroke-width:6.123;stroke-miterlimit:10;}
	.st19{fill:none;stroke:#91C88D;stroke-width:5.793;stroke-miterlimit:10;}
	.st20{fill:none;stroke:#91C88D;stroke-width:5.4807;stroke-miterlimit:10;}
	.st21{fill:none;stroke:#91C88D;stroke-width:5.1852;stroke-miterlimit:10;}
	.st22{fill:none;stroke:#91C88D;stroke-width:4.9057;stroke-miterlimit:10;}
	.st23{fill:none;stroke:#91C88D;stroke-width:4.6413;stroke-miterlimit:10;}
	.st24{fill:none;stroke:#91C88D;stroke-width:4.3911;stroke-miterlimit:10;}
	.st25{fill:none;stroke:#91C88D;stroke-width:4.1544;stroke-miterlimit:10;}
	.st26{fill:none;stroke:#91C88D;stroke-width:3.9304;stroke-miterlimit:10;}
</style>
<g id="Calque_2">
</g>
<g id="Calque_1">
	<g>
		<defs>
			<circle id="SVGID_1_" cx="425.2" cy="425.2" r="335.5"/>
		</defs>
		<clipPath id="SVGID_2_">
			<use xlink:href="#SVGID_1_"  style="overflow:visible;"/>
		</clipPath>
		<g class="st0">
			<g>
				<path class="st1" d="M4687.2,8517.2C3226,5945.5,1662.9,3357.8,1227.7,2051.7s2049.9,2607,321.4-512.2"/>
			</g>
			<g>
				<path class="st2" d="M4171.3,7709.1C2867,5369.3,1460,3009.3,1110.1,1839.8s1901.1,2406.7,363.6-428.5"/>
			</g>
			<g>
				<path class="st3" d="M3703.7,6970.5C2542.6,4843.2,1278.4,2692,1005.4,1647.2s1763.9,2222.3,400.6-352.7"/>
			</g>
			<g>
				<path class="st4" d="M3280.3,6295.5C2249.8,4363,1116,2403.2,912.5,1472.2s1637.3,2052.6,432.9-284.1"/>
			</g>
			<g>
				<path class="st5" d="M2897.3,5679c-911.4-1754.1-1926-3538.5-2066.9-4365.6s1520.5,1896.3,460.9-222.1"/>
			</g>
			<g>
				<path class="st6" d="M2551.4,5116.1C1748.5,3525.3,842.7,1901.8,758.2,1169.5s1412.8,1752.4,485-166.2"/>
			</g>
			<g>
				<path class="st7" d="M2239.3,4602.3C1535.2,3161.2,728.8,1685.1,694.9,1039.1S2008.3,2659,1200.4,923.3"/>
			</g>
			<g>
				<path class="st8" d="M1958.2,4133.6C1344.1,2829.5,628.3,1488.5,639.7,921.1c11.4-567.4,1221.6,1497.9,522.8-70.4"/>
			</g>
			<g>
				<path class="st9" d="M1705.4,3706.3C1173.2,2527.5,540,1310.3,592,814.5s1136.9,1385.5,537.2-29.6"/>
			</g>
			<g>
				<path class="st10" d="M1478.5,3316.9C1020.6,2252.8,462.7,1148.9,551,718.3s1058.7,1281.9,548.9,7"/>
			</g>
			<g>
				<path class="st11" d="M1275.3,2962.3C884.9,2003.1,395.6,1003,516.1,631.6s986.4,1186.5,558.2,39.7"/>
			</g>
			<g>
				<path class="st12" d="M1093.7,2639.5c-329.1-863.2-756-1768.3-606.9-2085.9s919.6,1098.7,565.4,68.9"/>
			</g>
			<g>
				<path class="st13" d="M931.8,2346C658.2,1570.5,288.1,752.4,462.4,483.5s857.9,1017.7,570.7,94.9"/>
			</g>
			<g>
				<path class="st14" d="M787.8,2079.2C564.6,1383.9,246,645.3,442.7,420.7s800.8,943,574.1,118"/>
			</g>
			<g>
				<path class="st15" d="M660.3,1837C482.5,1214.8,210.9,549.1,427,364.6s748,874.2,576,138.3"/>
			</g>
			<g>
				<path class="st16" d="M547.8,1617.2C411.1,1061.9,181.9,462.7,415.1,314.5s699.2,810.7,576.5,156.3"/>
			</g>
			<g>
				<path class="st17" d="M448.8,1418c-99.6-494.2-290.2-1032.6-42.3-1148s654.1,752.2,575.7,172.1"/>
			</g>
			<g>
				<path class="st18" d="M362.3,1237.6C296.1,799,140.4,316.2,400.9,230.4s612.2,698.3,573.8,185.8"/>
			</g>
			<g>
				<path class="st19" d="M287.1,1074.5c-36.2-387.8-160.3-819.8,111-879s573.5,648.5,570.8,197.7"/>
			</g>
			<g>
				<path class="st20" d="M222.1,927.1c-9.2-341.6-104.8-727.2,175.6-762.4s537.6,602.5,567,207.9"/>
			</g>
			<g>
				<path class="st21" d="M166.4,794.2c14.9-299.5-55-642.7,233-656.4S903.8,698,961.8,354.4"/>
			</g>
			<g>
				<path class="st22" d="M119.3,674.5c36.5-261.1-10.2-565.8,283.9-560.1s473.5,521,557,224"/>
			</g>
			<g>
				<path class="st23" d="M79.8,566.8c55.7-226.3,29.9-495.7,328.8-472.8S853.5,579,959.7,324.1"/>
			</g>
			<g>
				<path class="st24" d="M47.2,470.2c72.9-194.6,65.7-432,368.4-393.6s418.4,451.5,544.6,235"/>
			</g>
			<g>
				<path class="st25" d="M20.9,383.7c88-165.8,97.7-374,403-321.8s393.8,420.7,537.6,239"/>
			</g>
			<g>
				<path class="st26" d="M0.4,306.3c101.4-139.7,126-321.3,433.1-257s370.9,392.3,530.2,242"/>
			</g>
		</g>
	</g>
</g>
</svg>
